<svg xmlns="http://www.w3.org/2000/svg" xmlns:xlink="http://www.w3.org/1999/xlink" id="_Слой_1" data-name="Слой 1" viewBox="0 0 608.94 765.33" width="608.94"  height="765.33" ><defs><style> .cls-1 { fill: url(#_Безымянный_градиент_34-10); } .cls-2 { mask: url(#mask-15); } .cls-3 { mask: url(#mask-5); } .cls-4 { mask: url(#mask-13); } .cls-5 { fill: url(#_Безымянный_градиент_34-4); } .cls-6 { mask: url(#mask-1); } .cls-7 { mask: url(#mask-10); } .cls-8 { mask: url(#mask-6); } .cls-9 { mask: url(#mask-7); } .cls-10 { fill: #fff; } .cls-11 { mask: url(#mask); } .cls-12 { fill: url(#_Безымянный_градиент_34-15); } .cls-13 { fill: url(#_Безымянный_градиент_34-8); } .cls-14 { fill: url(#_Безымянный_градиент_34-13); } .cls-15 { fill: url(#_Безымянный_градиент_34-7); } .cls-16 { mask: url(#mask-8); } .cls-17 { mask: url(#mask-2); } .cls-18 { mask: url(#mask-9); } .cls-19 { fill: url(#_Безымянный_градиент_34-9); } .cls-20 { fill: url(#_Безымянный_градиент_34-2); } .cls-21 { fill: url(#_Безымянный_градиент_34-16); } .cls-22 { fill: url(#_Безымянный_градиент_34-3); } .cls-23 { fill: url(#_Безымянный_градиент_34); } .cls-24 { mask: url(#mask-11); } .cls-25 { mask: url(#mask-12); } .cls-26 { fill: url(#_Безымянный_градиент_34-11); } .cls-27 { mask: url(#mask-4); } .cls-28 { fill: url(#_Безымянный_градиент_34-14); } .cls-29 { fill: url(#_Безымянный_градиент_34-12); } .cls-30 { mask: url(#mask-14); } .cls-31 { fill: url(#_Безымянный_градиент_34-6); } .cls-32 { fill: url(#_Безымянный_градиент_34-5); } .cls-33 { mask: url(#mask-3); } </style><mask id="mask" x="-258.66" y="-146.66" width="1999.97" height="1058.65" maskUnits="userSpaceOnUse"><g id="tSvg147383f97d5"><path id="tSvg9b33a9ad74" class="cls-10" d="M-258.66-146.66h1999.97V911.99H-258.66V-146.66Z"/></g></mask><linearGradient id="_Безымянный_градиент_34" data-name="Безымянный градиент 34" x1="284.26" y1="553.72" x2="284.26" y2="766.68" gradientTransform="translate(0 766.68) scale(1 -1)" gradientUnits="userSpaceOnUse"><stop offset="0" stop-color="#7c17f7"/><stop offset="1" stop-color="#e638ce"/></linearGradient><mask id="mask-1" x="-258.66" y="-146.66" width="1999.97" height="1058.65" maskUnits="userSpaceOnUse"><g id="tSvg147383f97d5-2" data-name="tSvg147383f97d5"><path id="tSvg9b33a9ad74-2" data-name="tSvg9b33a9ad74" class="cls-10" d="M-258.66-146.66h1999.97V911.99H-258.66V-146.66Z"/></g></mask><linearGradient id="_Безымянный_градиент_34-2" data-name="Безымянный градиент 34" x1="284.26" y1="212.96" x2="284.26" y2="0" gradientTransform="matrix(1,0,0,1,0,0)" xlink:href="#_Безымянный_градиент_34"/><mask id="mask-2" x="-258.66" y="-146.66" width="1999.97" height="1058.65" maskUnits="userSpaceOnUse"><g id="tSvg147383f97d5-3" data-name="tSvg147383f97d5"><path id="tSvg9b33a9ad74-3" data-name="tSvg9b33a9ad74" class="cls-10" d="M-258.66-146.66h1999.97V911.99H-258.66V-146.66Z"/></g></mask><linearGradient id="_Безымянный_градиент_34-3" data-name="Безымянный градиент 34" x1="161.07" y1="591.35" x2="161.07" y2="733.22" xlink:href="#_Безымянный_градиент_34"/><mask id="mask-3" x="-258.66" y="-146.66" width="1999.97" height="1058.65" maskUnits="userSpaceOnUse"><g id="tSvg147383f97d5-4" data-name="tSvg147383f97d5"><path id="tSvg9b33a9ad74-4" data-name="tSvg9b33a9ad74" class="cls-10" d="M-258.66-146.66h1999.97V911.99H-258.66V-146.66Z"/></g></mask><linearGradient id="_Безымянный_градиент_34-4" data-name="Безымянный градиент 34" x1="161.07" y1="175.34" x2="161.07" y2="33.46" gradientTransform="matrix(1,0,0,1,0,0)" xlink:href="#_Безымянный_градиент_34"/><mask id="mask-4" x="-258.66" y="-146.66" width="1999.97" height="1058.65" maskUnits="userSpaceOnUse"><g id="tSvg147383f97d5-5" data-name="tSvg147383f97d5"><path id="tSvg9b33a9ad74-5" data-name="tSvg9b33a9ad74" class="cls-10" d="M-258.66-146.66h1999.97V911.99H-258.66V-146.66Z"/></g></mask><linearGradient id="_Безымянный_градиент_34-5" data-name="Безымянный градиент 34" x1="515.14" y1="9.75" x2="515.14" y2="663.35" xlink:href="#_Безымянный_градиент_34"/><mask id="mask-5" x="-258.66" y="-146.66" width="1999.97" height="1058.65" maskUnits="userSpaceOnUse"><g id="tSvg147383f97d5-6" data-name="tSvg147383f97d5"><path id="tSvg9b33a9ad74-6" data-name="tSvg9b33a9ad74" class="cls-10" d="M-258.66-146.66h1999.97V911.99H-258.66V-146.66Z"/></g></mask><linearGradient id="_Безымянный_градиент_34-6" data-name="Безымянный градиент 34" x1="515.14" y1="756.93" x2="515.14" y2="103.34" gradientTransform="matrix(1,0,0,1,0,0)" xlink:href="#_Безымянный_градиент_34"/><mask id="mask-6" x="-258.66" y="-146.66" width="1999.97" height="1058.65" maskUnits="userSpaceOnUse"><g id="tSvg147383f97d5-7" data-name="tSvg147383f97d5"><path id="tSvg9b33a9ad74-7" data-name="tSvg9b33a9ad74" class="cls-10" d="M-258.66-146.66h1999.97V911.99H-258.66V-146.66Z"/></g></mask><linearGradient id="_Безымянный_градиент_34-7" data-name="Безымянный градиент 34" x1="99.6" y1="226.2" x2="99.6" y2="556.85" xlink:href="#_Безымянный_градиент_34"/><mask id="mask-7" x="-258.66" y="-146.66" width="1999.97" height="1058.65" maskUnits="userSpaceOnUse"><g id="tSvg147383f97d5-8" data-name="tSvg147383f97d5"><path id="tSvg9b33a9ad74-8" data-name="tSvg9b33a9ad74" class="cls-10" d="M-258.66-146.66h1999.97V911.99H-258.66V-146.66Z"/></g></mask><linearGradient id="_Безымянный_градиент_34-8" data-name="Безымянный градиент 34" x1="99.6" y1="540.48" x2="99.6" y2="209.83" gradientTransform="matrix(1,0,0,1,0,0)" xlink:href="#_Безымянный_градиент_34"/><mask id="mask-8" x="-258.66" y="-146.66" width="1999.97" height="1058.65" maskUnits="userSpaceOnUse"><g id="tSvg147383f97d5-9" data-name="tSvg147383f97d5"><path id="tSvg9b33a9ad74-9" data-name="tSvg9b33a9ad74" class="cls-10" d="M-258.66-146.66h1999.97V911.99H-258.66V-146.66Z"/></g></mask><linearGradient id="_Безымянный_градиент_34-9" data-name="Безымянный градиент 34" x1="291.67" y1="351.36" x2="291.67" y2="514.6" xlink:href="#_Безымянный_градиент_34"/><mask id="mask-9" x="-258.66" y="-146.66" width="1999.97" height="1058.65" maskUnits="userSpaceOnUse"><g id="tSvg147383f97d5-10" data-name="tSvg147383f97d5"><path id="tSvg9b33a9ad74-10" data-name="tSvg9b33a9ad74" class="cls-10" d="M-258.66-146.66h1999.97V911.99H-258.66V-146.66Z"/></g></mask><linearGradient id="_Безымянный_градиент_34-10" data-name="Безымянный градиент 34" x1="291.67" y1="415.33" x2="291.67" y2="252.08" gradientTransform="matrix(1,0,0,1,0,0)" xlink:href="#_Безымянный_градиент_34"/><mask id="mask-10" x="-258.66" y="-146.66" width="1999.97" height="1058.65" maskUnits="userSpaceOnUse"><g id="tSvg147383f97d5-11" data-name="tSvg147383f97d5"><path id="tSvg9b33a9ad74-11" data-name="tSvg9b33a9ad74" class="cls-10" d="M-258.66-146.66h1999.97V911.99H-258.66V-146.66Z"/></g></mask><linearGradient id="_Безымянный_градиент_34-11" data-name="Безымянный градиент 34" x1="337.33" y1="1.35" x2="337.33" y2="317.35" xlink:href="#_Безымянный_градиент_34"/><mask id="mask-11" x="-258.66" y="-146.66" width="1999.97" height="1058.65" maskUnits="userSpaceOnUse"><g id="tSvg147383f97d5-12" data-name="tSvg147383f97d5"><path id="tSvg9b33a9ad74-12" data-name="tSvg9b33a9ad74" class="cls-10" d="M-258.66-146.66h1999.97V911.99H-258.66V-146.66Z"/></g></mask><linearGradient id="_Безымянный_градиент_34-12" data-name="Безымянный градиент 34" x1="337.33" y1="765.33" x2="337.33" y2="449.33" gradientTransform="matrix(1,0,0,1,0,0)" xlink:href="#_Безымянный_градиент_34"/><mask id="mask-12" x="-258.66" y="-146.66" width="1999.97" height="1058.65" maskUnits="userSpaceOnUse"><g id="tSvg147383f97d5-13" data-name="tSvg147383f97d5"><path id="tSvg9b33a9ad74-13" data-name="tSvg9b33a9ad74" class="cls-10" d="M-258.66-146.66h1999.97V911.99H-258.66V-146.66Z"/></g></mask><linearGradient id="_Безымянный_градиент_34-13" data-name="Безымянный градиент 34" x1="204.67" y1="1.35" x2="204.67" y2="202.69" xlink:href="#_Безымянный_градиент_34"/><mask id="mask-13" x="-258.66" y="-146.66" width="1999.97" height="1058.65" maskUnits="userSpaceOnUse"><g id="tSvg147383f97d5-14" data-name="tSvg147383f97d5"><path id="tSvg9b33a9ad74-14" data-name="tSvg9b33a9ad74" class="cls-10" d="M-258.66-146.66h1999.97V911.99H-258.66V-146.66Z"/></g></mask><linearGradient id="_Безымянный_градиент_34-14" data-name="Безымянный градиент 34" x1="204.67" y1="765.33" x2="204.67" y2="563.99" gradientTransform="matrix(1,0,0,1,0,0)" xlink:href="#_Безымянный_градиент_34"/><mask id="mask-14" x="-258.66" y="-146.66" width="1999.97" height="1058.65" maskUnits="userSpaceOnUse"><g id="tSvg147383f97d5-15" data-name="tSvg147383f97d5"><path id="tSvg9b33a9ad74-15" data-name="tSvg9b33a9ad74" class="cls-10" d="M-258.66-146.66h1999.97V911.99H-258.66V-146.66Z"/></g></mask><linearGradient id="_Безымянный_градиент_34-15" data-name="Безымянный градиент 34" x1="72" y1="1.35" x2="72" y2="141.35" xlink:href="#_Безымянный_градиент_34"/><mask id="mask-15" x="-258.66" y="-146.66" width="1999.97" height="1058.65" maskUnits="userSpaceOnUse"><g id="tSvg147383f97d5-16" data-name="tSvg147383f97d5"><path id="tSvg9b33a9ad74-16" data-name="tSvg9b33a9ad74" class="cls-10" d="M-258.66-146.66h1999.97V911.99H-258.66V-146.66Z"/></g></mask><linearGradient id="_Безымянный_градиент_34-16" data-name="Безымянный градиент 34" x1="72" y1="765.33" x2="72" y2="625.33" gradientTransform="matrix(1,0,0,1,0,0)" xlink:href="#_Безымянный_градиент_34"/></defs><g class="cls-11"><path id="tSvg4fa12766d6" class="cls-23" d="M324.8,4.67c-3.06,15.73-16.8,46-30.4,66.67-12.93,19.6-29.47,39.6-53.2,64-19.86,20.53-23.86,25.33-26.13,31.46-3.73,10.14-4.67,18-3.07,26.54,1.47,7.86,6.4,18.93,8.67,19.6,4.8,1.46,65.6-56.81,86.53-82.94,15.73-19.6,34.14-47.46,42.54-64.53,6.26-12.53,6.93-14.8,7.46-24.4.54-12.93-2-20.4-9.73-28.8-4.93-5.33-16.27-12.27-20.27-12.27-.93,0-2,2.14-2.4,4.67Z"/></g><g class="cls-6"><path id="tSvg533fe29012" class="cls-20" d="M294.4,71.34c-12.93,19.6-29.47,39.6-53.2,64-19.86,20.53-23.86,25.33-26.13,31.46-3.73,10.14-4.67,18-3.07,26.54,1.47,7.86,6.4,18.93,8.67,19.6,4.8,1.46,65.6-56.81,86.53-82.94,15.73-19.6,34.14-47.46,42.54-64.53,6.26-12.53,6.93-14.8,7.46-24.4.54-12.93-2-20.4-9.73-28.8-4.93-5.33-16.27-12.27-20.27-12.27-.93,0-2,2.14-2.4,4.67-3.06,15.73-16.8,46-30.4,66.67Z"/></g><g class="cls-17"><path id="tSvg6c9dacfa46" class="cls-22" d="M150,34.67c-32.53,8-53.73,46.67-46.8,85.07,4.14,23.33,16.8,41.46,35.2,50.53,9.34,4.67,11.07,5.07,21.47,5.07s12.27-.54,19.6-4.27c16.67-8.67,32-30.27,38-53.47,4.93-18.93,3.2-43.33-4.13-57.73-8.27-16-29.47-26.8-51.87-26.4-4.13.13-9.2.53-11.47,1.2Z"/></g><g class="cls-33"><path id="tSvg327e0daed8" class="cls-5" d="M103.2,119.74c4.14,23.33,16.8,41.46,35.2,50.53,9.34,4.67,11.07,5.07,21.47,5.07s12.27-.54,19.6-4.27c16.67-8.67,32-30.27,38-53.47,4.93-18.93,3.2-43.33-4.13-57.73-8.27-16-29.47-26.8-51.87-26.4-4.13.13-9.2.53-11.47,1.2-32.53,8-53.73,46.67-46.8,85.07Z"/></g><g class="cls-27"><path id="tSvg7b0b3fb3a2" class="cls-32" d="M421.33,158.67v55.33c6.18,10.67,12.35,21.33,18.53,32,10.13,17.6,38.27,66.4,62.53,108.4,14.71,25.42,29.43,50.85,44.14,76.27-13.82,23.91-27.65,47.82-41.47,71.73-22.67,39.34-50.93,88.14-62.53,108.4-7.07,12.27-14.13,24.53-21.2,36.8.09,18.22.17,36.45.26,54.67.13,18.22.27,36.45.4,54.67,25.78-44.67,51.56-89.33,77.34-134,42.53-73.74,84.4-146.27,93.2-161.47,8.66-15.07,16.13-28.4,16.4-29.73.4-1.2-30.8-56.67-75.07-133.34-41.6-72-84-145.46-94.13-163.06-6.13-10.67-12.27-21.33-18.4-32v55.33Z"/></g><g class="cls-3"><path id="tSvg204c5bbfd" class="cls-31" d="M421.33,214c6.18,10.67,12.35,21.33,18.53,32,10.13,17.6,38.27,66.4,62.53,108.4,14.71,25.42,29.43,50.85,44.14,76.27-13.82,23.91-27.65,47.82-41.47,71.73-22.67,39.34-50.93,88.14-62.53,108.4-7.07,12.27-14.13,24.53-21.2,36.8.09,18.22.17,36.45.26,54.67.13,18.22.27,36.45.4,54.67,25.78-44.67,51.56-89.33,77.34-134,42.53-73.74,84.4-146.27,93.2-161.47,8.66-15.07,16.13-28.4,16.4-29.73.4-1.2-30.8-56.67-75.07-133.34-41.6-72-84-145.46-94.13-163.06-6.13-10.67-12.27-21.33-18.4-32v110.66Z"/></g><g class="cls-8"><path id="tSvgd1368f027b" class="cls-15" d="M133.34,210.14c-2.54.26-10.4,1.2-17.34,2-20,2.26-52.66,8.66-85.6,16.66-10.13,2.49-20.27,4.98-30.4,7.47.71,1.6,1.43,3.2,2.14,4.8,6.4,15.73,19.06,25.47,36.53,28.4,6.13.93,10.67.4,30-3.47,47.33-9.6,86-14.13,86-9.86,0,5.06-4.67,28-9.47,46.53-19.46,75.33-60.93,173.6-93.46,221.73-6.14,9.07-5.74,10.27,4.66,13.74,15.34,5.06,31.07,1.86,42.67-8.8,6-5.47,9.07-10.14,19.2-30.27,42.8-83.87,80.4-197.87,80.93-245.07.14-17.06-1.33-22.66-8.26-30.26-5.47-6-10.14-8.8-19.6-11.34-6.94-1.86-29.87-3.2-38-2.26Z"/></g><g class="cls-9"><path id="tSvg962bb663e0" class="cls-13" d="M116,212.14c-20,2.26-52.66,8.66-85.6,16.66-10.13,2.49-20.27,4.98-30.4,7.47.71,1.6,1.43,3.2,2.14,4.8,6.4,15.73,19.06,25.47,36.53,28.4,6.13.93,10.67.4,30-3.47,47.33-9.6,86-14.13,86-9.86,0,5.06-4.67,28-9.47,46.53-19.46,75.33-60.93,173.6-93.46,221.73-6.14,9.07-5.74,10.27,4.66,13.74,15.34,5.06,31.07,1.86,42.67-8.8,6-5.47,9.07-10.14,19.2-30.27,42.8-83.87,80.4-197.87,80.93-245.07.14-17.06-1.33-22.66-8.26-30.26-5.47-6-10.14-8.8-19.6-11.34-6.94-1.86-29.87-3.2-38-2.26-2.54.26-10.4,1.2-17.34,2Z"/></g><g class="cls-16"><path id="tSvg115c745f47d" class="cls-19" d="M317.34,254.8c-20.27,5.47-53.87,20.94-90.27,41.6-10.53,5.87-19.07,11.2-19.07,11.87,0,2.67,11.47,13.33,17.87,16.4,15.2,7.47,29.33,6.67,47.6-2.67,16.53-8.4,37.87-17.86,48.27-21.46,3.07-1.02,6.13-2.05,9.2-3.07-.31,2.76-.63,5.51-.94,8.27-2.26,20.13-11.73,60.13-21.73,91.19-4.53,14.27-4.93,16.41-3.07,16.94,17.34,4.8,37.74-2.53,47.74-17.47,6.93-10.26,18.4-56.26,21.73-86.8,1.73-16.4.13-30.8-4.4-40.13-3.6-6.93-12-14-19.33-16.13-7.74-2.14-22.54-1.47-33.6,1.46Z"/></g><g class="cls-18"><path id="tSvg8288523cb2" class="cls-1" d="M227.07,296.4c-10.53,5.87-19.07,11.2-19.07,11.87,0,2.67,11.47,13.33,17.87,16.4,15.2,7.47,29.33,6.67,47.6-2.67,16.53-8.4,37.87-17.86,48.27-21.46,3.07-1.02,6.13-2.05,9.2-3.07-.31,2.76-.63,5.51-.94,8.27-2.26,20.13-11.73,60.13-21.73,91.19-4.53,14.27-4.93,16.41-3.07,16.94,17.34,4.8,37.74-2.53,47.74-17.47,6.93-10.26,18.4-56.26,21.73-86.8,1.73-16.4.13-30.8-4.4-40.13-3.6-6.93-12-14-19.33-16.13-7.74-2.14-22.54-1.47-33.6,1.46-20.27,5.47-53.87,20.94-90.27,41.6Z"/></g><g class="cls-7"><path id="tSvg15d8af504d" class="cls-26" d="M296,607.33v158h82.67v-314.27c-2.71-.31-5.42-.62-8.13-.93-4.54-.4-23.2-.8-41.34-.8h-33.2v158Z"/></g><g class="cls-24"><path id="tSvg10f28c5354c" class="cls-29" d="M296,765.33h82.67v-314.27c-2.71-.31-5.42-.62-8.13-.93-4.54-.4-23.2-.8-41.34-.8h-33.2v316Z"/></g><g class="cls-25"><path id="tSvg2f044bd821" class="cls-14" d="M162.67,664.66v100.67h84v-97.74c0-53.6-.4-98.93-.8-100.66-.27-.98-.53-1.96-.8-2.94h-82.4v100.67Z"/></g><g class="cls-4"><path id="tSvg6e3f9de9" class="cls-28" d="M162.67,765.33h84v-97.74c0-53.6-.4-98.93-.8-100.66-.27-.98-.53-1.96-.8-2.94h-82.4v201.34Z"/></g><g class="cls-30"><path id="tSvg99b86ebe43" class="cls-12" d="M30.67,695.33v70h82.67v-138.4c-1.38-.27-2.76-.53-4.14-.8-2.26-.4-20.93-.8-41.33-.8H30.67v70Z"/></g><g class="cls-2"><path id="tSvg130fa377e69" class="cls-21" d="M30.67,765.33h82.67v-138.4c-1.38-.27-2.76-.53-4.14-.8-2.26-.4-20.93-.8-41.33-.8H30.67v140Z"/></g></svg>